<svg width="389" height="50" viewBox="0 0 389 50" fill="none" xmlns="http://www.w3.org/2000/svg">
<path d="M11.064 26.28H7.992V39H0.119995V5.73602H11.016C15.56 5.73602 18.968 6.56802 21.24 8.23202C23.544 9.89602 24.696 12.44 24.696 15.864C24.696 18.008 24.184 19.8 23.16 21.24C22.136 22.648 20.52 23.848 18.312 24.84L26.76 39H17.88L11.064 26.28ZM7.992 20.856H11.304C13.064 20.856 14.376 20.456 15.24 19.656C16.136 18.856 16.584 17.592 16.584 15.864C16.584 14.264 16.104 13.096 15.144 12.36C14.216 11.624 12.776 11.256 10.824 11.256H7.992V20.856Z" fill="black"/>
<path d="M43.665 39.048C42.641 42.344 40.961 44.872 38.625 46.632C36.321 48.424 33.217 49.432 29.313 49.656L28.497 44.328C30.929 44.008 32.721 43.464 33.873 42.696C35.057 41.928 36.001 40.696 36.705 39H34.113L26.337 13.512H34.401L38.961 34.152L43.953 13.512H51.777L43.665 39.048Z" fill="black"/>
<path d="M73.6226 31.608C73.6226 32.568 73.7506 33.272 74.0066 33.72C74.2946 34.168 74.7426 34.504 75.3506 34.728L73.7666 39.672C72.1986 39.544 70.9186 39.208 69.9266 38.664C68.9346 38.088 68.1666 37.192 67.6226 35.976C65.9586 38.536 63.3986 39.816 59.9426 39.816C57.4146 39.816 55.3986 39.08 53.8946 37.608C52.3906 36.136 51.6386 34.216 51.6386 31.848C51.6386 29.064 52.6626 26.936 54.7106 25.464C56.7586 23.992 59.7186 23.256 63.5906 23.256H66.1826V22.152C66.1826 20.648 65.8626 19.624 65.2226 19.08C64.5826 18.504 63.4626 18.216 61.8626 18.216C61.0306 18.216 60.0226 18.344 58.8386 18.6C57.6546 18.824 56.4386 19.144 55.1906 19.56L53.4626 14.568C55.0626 13.96 56.6946 13.496 58.3586 13.176C60.0546 12.856 61.6226 12.696 63.0626 12.696C66.7106 12.696 69.3826 13.448 71.0786 14.952C72.7746 16.456 73.6226 18.712 73.6226 21.72V31.608ZM62.1506 34.392C63.8786 34.392 65.2226 33.576 66.1826 31.944V27.432H64.3106C62.5826 27.432 61.2866 27.736 60.4226 28.344C59.5906 28.952 59.1746 29.896 59.1746 31.176C59.1746 32.2 59.4306 33 59.9426 33.576C60.4866 34.12 61.2226 34.392 62.1506 34.392Z" fill="black"/>
<path d="M94.5915 12.696C96.7995 12.696 98.5275 13.368 99.7755 14.712C101.023 16.056 101.647 17.944 101.647 20.376V39H94.0635V21.672C94.0635 20.392 93.8555 19.512 93.4395 19.032C93.0555 18.52 92.4635 18.264 91.6635 18.264C90.1275 18.264 88.6555 19.368 87.2475 21.576V39H79.6635V13.512H86.2875L86.8155 16.536C87.9035 15.256 89.0715 14.296 90.3195 13.656C91.5995 13.016 93.0235 12.696 94.5915 12.696Z" fill="black"/>
<path d="M128.165 5.73602C133.381 5.73602 137.557 6.92002 140.693 9.28802C143.861 11.624 145.445 15.928 145.445 22.2C145.445 28.376 143.909 32.728 140.837 35.256C137.765 37.752 133.781 39 128.885 39H118.901V5.73602H128.165ZM126.773 11.448V33.288H129.365C131.957 33.288 133.925 32.488 135.269 30.888C136.613 29.256 137.285 26.36 137.285 22.2C137.285 19.352 136.949 17.144 136.277 15.576C135.605 14.008 134.693 12.936 133.541 12.36C132.389 11.752 130.965 11.448 129.269 11.448H126.773Z" fill="black"/>
<path d="M157.607 13.512V39H150.023V13.512H157.607ZM153.767 0.0720215C155.079 0.0720215 156.151 0.488022 156.983 1.32002C157.847 2.12002 158.279 3.14402 158.279 4.39202C158.279 5.64002 157.847 6.68002 156.983 7.51202C156.151 8.31202 155.079 8.71202 153.767 8.71202C152.455 8.71202 151.383 8.31202 150.551 7.51202C149.719 6.68002 149.303 5.64002 149.303 4.39202C149.303 3.14402 149.719 2.12002 150.551 1.32002C151.383 0.488022 152.455 0.0720215 153.767 0.0720215Z" fill="black"/>
<path d="M183.826 31.608C183.826 32.568 183.954 33.272 184.21 33.72C184.498 34.168 184.946 34.504 185.554 34.728L183.97 39.672C182.402 39.544 181.122 39.208 180.13 38.664C179.138 38.088 178.37 37.192 177.826 35.976C176.162 38.536 173.602 39.816 170.146 39.816C167.618 39.816 165.602 39.08 164.098 37.608C162.594 36.136 161.842 34.216 161.842 31.848C161.842 29.064 162.866 26.936 164.914 25.464C166.962 23.992 169.922 23.256 173.794 23.256H176.386V22.152C176.386 20.648 176.066 19.624 175.426 19.08C174.786 18.504 173.666 18.216 172.066 18.216C171.234 18.216 170.226 18.344 169.042 18.6C167.858 18.824 166.642 19.144 165.394 19.56L163.666 14.568C165.266 13.96 166.898 13.496 168.562 13.176C170.258 12.856 171.826 12.696 173.266 12.696C176.914 12.696 179.586 13.448 181.282 14.952C182.978 16.456 183.826 18.712 183.826 21.72V31.608ZM172.354 34.392C174.082 34.392 175.426 33.576 176.386 31.944V27.432H174.514C172.786 27.432 171.49 27.736 170.626 28.344C169.794 28.952 169.378 29.896 169.378 31.176C169.378 32.2 169.634 33 170.146 33.576C170.69 34.12 171.426 34.392 172.354 34.392Z" fill="black"/>
<path d="M198.374 12.696C200.198 12.696 201.91 12.968 203.51 13.512C205.11 14.056 206.518 14.824 207.734 15.816L204.95 20.088C202.87 18.776 200.774 18.12 198.662 18.12C197.67 18.12 196.902 18.296 196.358 18.648C195.846 18.968 195.59 19.432 195.59 20.04C195.59 20.52 195.702 20.92 195.926 21.24C196.182 21.528 196.678 21.832 197.414 22.152C198.15 22.472 199.286 22.856 200.822 23.304C203.478 24.072 205.446 25.08 206.726 26.328C208.038 27.544 208.694 29.24 208.694 31.416C208.694 33.144 208.198 34.648 207.206 35.928C206.214 37.176 204.854 38.136 203.126 38.808C201.398 39.48 199.478 39.816 197.366 39.816C195.222 39.816 193.222 39.48 191.366 38.808C189.542 38.136 187.99 37.208 186.71 36.024L190.406 31.896C192.55 33.56 194.806 34.392 197.174 34.392C198.326 34.392 199.222 34.184 199.862 33.768C200.534 33.352 200.87 32.76 200.87 31.992C200.87 31.384 200.742 30.904 200.486 30.552C200.23 30.2 199.734 29.88 198.998 29.592C198.262 29.272 197.094 28.888 195.494 28.44C192.966 27.704 191.078 26.68 189.83 25.368C188.582 24.056 187.958 22.424 187.958 20.472C187.958 19 188.374 17.688 189.206 16.536C190.07 15.352 191.286 14.424 192.854 13.752C194.454 13.048 196.294 12.696 198.374 12.696Z" fill="black"/>
<path d="M237.576 4.92002C242.312 4.92002 245.992 6.44002 248.616 9.48002C251.272 12.52 252.6 16.808 252.6 22.344C252.6 25.96 251.992 29.08 250.776 31.704C249.592 34.328 247.864 36.344 245.592 37.752C243.352 39.128 240.68 39.816 237.576 39.816C234.472 39.816 231.8 39.128 229.56 37.752C227.32 36.376 225.592 34.392 224.376 31.8C223.192 29.176 222.6 26.024 222.6 22.344C222.6 18.76 223.192 15.656 224.376 13.032C225.592 10.408 227.32 8.40802 229.56 7.03202C231.8 5.62402 234.472 4.92002 237.576 4.92002ZM237.576 10.68C235.304 10.68 233.608 11.608 232.488 13.464C231.4 15.288 230.856 18.248 230.856 22.344C230.856 26.44 231.416 29.416 232.536 31.272C233.656 33.128 235.336 34.056 237.576 34.056C239.88 34.056 241.576 33.144 242.664 31.32C243.784 29.464 244.344 26.472 244.344 22.344C244.344 18.216 243.784 15.24 242.664 13.416C241.544 11.592 239.848 10.68 237.576 10.68Z" fill="black"/>
<path d="M263.947 39.816C261.739 39.816 260.011 39.192 258.763 37.944C257.547 36.664 256.939 34.856 256.939 32.52V3.38402L264.523 2.56802V32.232C264.523 33.288 264.955 33.816 265.819 33.816C266.267 33.816 266.683 33.736 267.067 33.576L268.555 38.952C267.179 39.528 265.643 39.816 263.947 39.816Z" fill="black"/>
<path d="M279.013 13.512V39H271.429V13.512H279.013ZM275.173 0.0720215C276.485 0.0720215 277.557 0.488022 278.389 1.32002C279.253 2.12002 279.685 3.14402 279.685 4.39202C279.685 5.64002 279.253 6.68002 278.389 7.51202C277.557 8.31202 276.485 8.71202 275.173 8.71202C273.861 8.71202 272.789 8.31202 271.957 7.51202C271.125 6.68002 270.709 5.64002 270.709 4.39202C270.709 3.14402 271.125 2.12002 271.957 1.32002C272.789 0.488022 273.861 0.0720215 275.173 0.0720215Z" fill="black"/>
<path d="M306.912 13.512L298.896 39H289.92L281.712 13.512H289.968L294.48 33.24L299.184 13.512H306.912Z" fill="black"/>
<path d="M331.434 25.752C331.434 26.808 331.386 27.72 331.29 28.488H315.498C315.754 30.632 316.362 32.136 317.322 33C318.282 33.864 319.61 34.296 321.306 34.296C322.33 34.296 323.322 34.12 324.282 33.768C325.242 33.384 326.282 32.808 327.402 32.04L330.522 36.264C327.546 38.632 324.234 39.816 320.586 39.816C316.458 39.816 313.29 38.6 311.082 36.168C308.874 33.736 307.77 30.472 307.77 26.376C307.77 23.784 308.234 21.464 309.162 19.416C310.09 17.336 311.45 15.704 313.242 14.52C315.034 13.304 317.178 12.696 319.674 12.696C323.354 12.696 326.234 13.848 328.314 16.152C330.394 18.456 331.434 21.656 331.434 25.752ZM323.994 23.592C323.93 19.688 322.554 17.736 319.866 17.736C318.554 17.736 317.53 18.216 316.794 19.176C316.09 20.136 315.658 21.72 315.498 23.928H323.994V23.592Z" fill="black"/>
<path d="M343.279 13.512V39H335.695V13.512H343.279ZM339.439 0.0720215C340.751 0.0720215 341.823 0.488022 342.655 1.32002C343.519 2.12002 343.951 3.14402 343.951 4.39202C343.951 5.64002 343.519 6.68002 342.655 7.51202C341.823 8.31202 340.751 8.71202 339.439 8.71202C338.127 8.71202 337.055 8.31202 336.223 7.51202C335.391 6.68002 334.975 5.64002 334.975 4.39202C334.975 3.14402 335.391 2.12002 336.223 1.32002C337.055 0.488022 338.127 0.0720215 339.439 0.0720215Z" fill="black"/>
<path d="M363.066 12.792C363.994 12.792 364.842 12.904 365.61 13.128L364.41 20.472C363.45 20.248 362.682 20.136 362.106 20.136C360.602 20.136 359.45 20.664 358.65 21.72C357.882 22.744 357.274 24.296 356.826 26.376V39H349.242V13.512H355.866L356.49 18.456C357.066 16.696 357.93 15.32 359.082 14.328C360.266 13.304 361.594 12.792 363.066 12.792Z" fill="black"/>
<path d="M387.076 31.608C387.076 32.568 387.204 33.272 387.46 33.72C387.748 34.168 388.196 34.504 388.804 34.728L387.22 39.672C385.652 39.544 384.372 39.208 383.38 38.664C382.388 38.088 381.62 37.192 381.076 35.976C379.412 38.536 376.852 39.816 373.396 39.816C370.868 39.816 368.852 39.08 367.348 37.608C365.844 36.136 365.092 34.216 365.092 31.848C365.092 29.064 366.116 26.936 368.164 25.464C370.212 23.992 373.172 23.256 377.044 23.256H379.636V22.152C379.636 20.648 379.316 19.624 378.676 19.08C378.036 18.504 376.916 18.216 375.316 18.216C374.484 18.216 373.476 18.344 372.292 18.6C371.108 18.824 369.892 19.144 368.644 19.56L366.916 14.568C368.516 13.96 370.148 13.496 371.812 13.176C373.508 12.856 375.076 12.696 376.516 12.696C380.164 12.696 382.836 13.448 384.532 14.952C386.228 16.456 387.076 18.712 387.076 21.72V31.608ZM375.604 34.392C377.332 34.392 378.676 33.576 379.636 31.944V27.432H377.764C376.036 27.432 374.74 27.736 373.876 28.344C373.044 28.952 372.628 29.896 372.628 31.176C372.628 32.2 372.884 33 373.396 33.576C373.94 34.12 374.676 34.392 375.604 34.392Z" fill="black"/>
</svg>
